<svg width="18" height="25" viewBox="0 0 18 25" fill="none" xmlns="http://www.w3.org/2000/svg">
<path d="M15.4322 12.1923C15.716 12.3058 15.9891 12.4067 16.2434 12.4952C15.9897 12.5822 15.7174 12.6813 15.4344 12.793C14.1133 13.3141 12.4799 14.138 11.4812 15.325C10.2576 16.7794 9.52297 19.2296 9.09094 21.2309C9.05912 21.3783 9.02883 21.5239 9 21.6671C8.97117 21.5239 8.94088 21.3783 8.90906 21.2309C8.47703 19.2296 7.74242 16.7794 6.51883 15.325C5.52015 14.138 3.88673 13.3141 2.56562 12.793C2.28262 12.6813 2.01026 12.5822 1.75663 12.4952C2.01086 12.4067 2.28396 12.3058 2.56775 12.1923C3.88856 11.6643 5.5209 10.8335 6.51883 9.64729C7.74219 8.19315 8.47689 5.75029 8.90898 3.75559C8.94083 3.60857 8.97115 3.46339 9 3.32054C9.02885 3.46339 9.05917 3.60857 9.09102 3.75559C9.52311 5.75029 10.2578 8.19315 11.4812 9.64729C12.4791 10.8335 14.1114 11.6643 15.4322 12.1923Z" fill="#4440FF" stroke="#4440FF"/>
</svg>
